PathFileType	4	(X/Y/Z)	C:/Users/opensim2020/Desktop/walking_exp_matlab/subject03_walking11_straight_04.trc																																																																																																																																								
DataRate	CameraRate	NumFrames	NumMarkers	Units	OrigDataRate	OrigDataStartFrame	OrigNumFrames																																																																																																																																				
100	100	4	46	mm	100	4054	350																																																																																																																																				
Frame#	Time	LFHD			RFHD			LBHD			RBHD			C7			T10			CLAV			STRN			RBAK			LSHO			LUPA			LELB			LFRM			LWRA			LWRB			LFIN			RSHO			RUPA			RELB			RFRM			RWRA			RWRB			RFIN			LASI			RASI			LPSI			RPSI			LTHI			LKNE			LTIB			LANK			LHEE			LTOE			RTHI			RKNE			RTIB			RANK			RHEE			RTOE			*39			*40			*41			*42			*43			*44			*45		
		X1	Y1	Z1	X2	Y2	Z2	X3	Y3	Z3	X4	Y4	Z4	X5	Y5	Z5	X6	Y6	Z6	X7	Y7	Z7	X8	Y8	Z8	X9	Y9	Z9	X10	Y10	Z10	X11	Y11	Z11	X12	Y12	Z12	X13	Y13	Z13	X14	Y14	Z14	X15	Y15	Z15	X16	Y16	Z16	X17	Y17	Z17	X18	Y18	Z18	X19	Y19	Z19	X20	Y20	Z20	X21	Y21	Z21	X22	Y22	Z22	X23	Y23	Z23	X24	Y24	Z24	X25	Y25	Z25	X26	Y26	Z26	X27	Y27	Z27	X28	Y28	Z28	X29	Y29	Z29	X30	Y30	Z30	X31	Y31	Z31	X32	Y32	Z32	X33	Y33	Z33	X34	Y34	Z34	X35	Y35	Z35	X36	Y36	Z36	X37	Y37	Z37	X38	Y38	Z38	X39	Y39	Z39	X40	Y40	Z40	X41	Y41	Z41	X42	Y42	Z42	X43	Y43	Z43	X44	Y44	Z44	X45	Y45	Z45	X46	Y46	Z46
																																																																																																																																											
307	3.06	903.71045	1625.07239	900.38556	894.32727	1633.07104	1033.04102	782.62091	1564.41663	900.29449	778.60303	1572.69495	1030.38574	761.1806	1419.38879	957.66943	721.94916	1106.92932	959.98633	886.36072	1343.9884	965.03516	923.04767	1176.9552	961.38092	704.57642	1248.02209	1054.68237	854.03094	1380.28552	808.78729	883.64258	1191.19849	729.84601	920.38184	1074.28882	715.74341	979.14435	958.38306	720.81812	1022.45758	848.44794	753.57275	1010.08313	850.5329	699.16766	1047.33484	775.52069	710.12073	835.96735	1368.09827	1123.12134	836.91174	1145.44324	1196.58276	854.46594	1034.93542	1213.62463	880.28619	900.67798	1219.56128	922.83832	808.47217	1189.74158	886.0741	800.59204	1229.27393	916.23322	732.34473	1223.48462	891.32959	944.04828	847.28546	887.97894	943.3739	1085.14136	727.90918	965.48889	897.11322	727.53333	967.27008	1045.47888	832.29694	641.49207	814.48877	836.50726	464.0376	856.87976	781.41565	275.31735	858.64545	765.32819	65.25456	903.758	726.51141	29.71495	941.73907	919.08112	30.21793	925.34161	894.18005	649.9494	1141.07532	959.13782	481.3075	1116.82385	888.88025	301.5997	1120.33179	825.07086	94.82705	1077.74316	779.15906	67.91716	1021.5954	953.12543	37.59061	1073.02209	810.99347	1674.96741	945.35187	NaN	NaN	NaN	NaN	NaN	NaN	NaN	NaN	NaN	NaN	NaN	NaN	NaN	NaN	NaN	NaN	NaN	NaN
308	3.07	909.30316	1624.3772	900.28558	900.08636	1632.49731	1032.91663	787.87524	1564.45642	900.34039	784.19238	1572.78357	1030.38538	766.19934	1418.93201	956.68213	727.02661	1106.4353	959.51544	891.2616	1343.57837	964.85614	928.09186	1176.58459	960.99213	709.29871	1247.5304	1053.92102	859.38843	1380.12476	808.61609	889.86884	1191.58545	729.01532	927.62439	1075.09668	714.56647	988.08002	960.12793	719.7561	1033.37622	851.11859	752.77863	1020.65265	852.65527	698.47815	1059.40222	778.46039	709.64905	840.505	1367.41272	1122.88208	840.72308	1144.77698	1196.33435	858.14551	1034.24646	1213.47302	883.70435	899.96228	1219.5188	926.19971	807.70282	1189.85608	889.31458	799.87646	1229.23547	919.5069	731.68268	1223.7196	896.38861	943.70587	846.88324	893.11377	943.06018	1084.76184	732.92334	965.05029	896.86591	732.57263	966.66296	1045.21777	836.54742	641.31085	814.79401	839.25677	464.04309	856.72015	782.71844	275.34125	858.58044	765.48242	65.3359	903.80316	726.52087	29.79266	941.81384	919.05688	30.127	925.35303	900.15747	649.71631	1141.02026	965.74463	481.29239	1115.92957	901.81848	299.33289	1119.2074	846.99042	89.9654	1076.44666	802.39331	61.49771	1019.95752	977.138	37.98016	1072.37549	817.36975	1674.94519	944.35504	NaN	NaN	NaN	NaN	NaN	NaN	NaN	NaN	NaN	NaN	NaN	NaN	NaN	NaN	NaN	NaN	NaN	NaN
309	3.08	915.03082	1623.68701	900.1676	905.88031	1631.875	1032.8009	793.38965	1564.31946	900.08118	789.47931	1572.67468	1030.13318	771.03308	1418.74548	956.44342	732.02161	1105.99158	959.30255	896.23047	1343.14526	964.6886	932.93512	1176.14563	960.65472	713.96967	1246.97852	1053.37988	864.70996	1379.90344	808.49817	896.12701	1191.88489	728.23956	934.84528	1075.87952	713.45612	996.82758	961.73608	718.81415	1044.07434	853.76398	752.21307	1030.97607	854.66943	697.9823	1071.12415	781.30103	709.36902	845.09296	1366.71423	1122.70032	844.64124	1144.04919	1196.11548	861.81714	1033.50659	1213.35718	887.17627	899.19885	1219.453	929.63483	806.97217	1189.98303	892.70245	799.14001	1229.16565	922.81537	730.94196	1223.92297	901.50592	943.36804	846.56067	898.25842	942.61383	1084.48645	738.00928	964.57581	896.65253	737.6806	965.99799	1045.00427	840.54266	641.05902	814.91992	841.43182	463.61752	856.76843	784.01221	275.38559	858.58038	765.67969	65.37201	903.87146	726.50452	29.854	941.83948	919.13	30.12973	925.30902	905.20081	649.40302	1141.33716	972.01849	481.15524	1115.04248	914.72852	297.28638	1118.24744	869.04138	85.60633	1075.05029	825.62897	55.6721	1018.5954	1000.78992	38.53732	1072.08411	823.08691	1674.95715	944.74738	NaN	NaN	NaN	NaN	NaN	NaN	NaN	NaN	NaN	NaN	NaN	NaN	NaN	NaN	NaN	NaN	NaN	NaN
310	3.09	920.78168	1622.81506	900.16986	911.68799	1631.20129	1032.72217	798.69745	1564.31091	900.15405	795.18115	1572.53772	1030.33655	776.0965	1418.48108	956.78088	737.02228	1105.55566	959.11047	901.16718	1342.66504	964.5849	937.89667	1175.63904	960.36627	718.8432	1246.38	1052.74048	870.00702	1379.64929	808.42834	902.37201	1192.0979	727.64771	941.79736	1076.43311	712.44318	1005.35486	963.24652	718.06213	1054.37622	856.29456	751.8396	1041.03101	856.55341	697.72314	1082.53394	784.08746	709.40924	849.66486	1366.11169	1122.65137	848.60229	1143.33508	1195.91943	865.58582	1032.77075	1213.2439	890.68091	898.38983	1219.37646	933.18079	806.11694	1190.06531	895.83472	798.43353	1229.18774	926.09241	730.21454	1224.1095	906.73016	943.04431	846.28564	903.41742	942.073	1084.27039	743.19507	964.03235	896.4314	742.8808	965.27075	1044.78345	844.5332	640.77563	814.9505	843.7627	463.28171	856.78076	785.31506	275.39758	858.58887	765.75031	65.52901	903.92828	726.44568	30.01204	941.91071	919.12671	29.95525	925.49561	910.65729	648.77112	1140.88757	978.11243	480.83572	1114.05823	927.26599	295.57266	1117.32458	890.48828	82.15637	1074.49707	848.90875	50.66914	1017.52081	1024.17322	39.21885	1072.00293	829.08417	1674.54736	944.81879	NaN	NaN	NaN	NaN	NaN	NaN	NaN	NaN	NaN	NaN	NaN	NaN	NaN	NaN	NaN	NaN	NaN	NaN
